{
  "source": "C:\\Users\\Peter\\Desktop\\stuff\\MIUN\\quantitative_research\\video_compression\\videos\\BVI-HD\\BVI-HD_CDVL_videos\\ORIG\\CarpetCircleFast_1920x1080_60fps.mp4",
  "output": "C:\\Users\\Peter\\Desktop\\stuff\\MIUN\\quantitative_research\\video_compression\\compressed_videos\\BVI-HD\\h264\\2.5\\CarpetCircleFast_1920x1080_60fps_h264.mp4",
  "codec": "h264",
  "ok": "Input #0, mov,mp4,m4a,3gp,3g2,mj2, from 'C:\\Users\\Peter\\Desktop\\stuff\\MIUN\\quantitative_research\\video_compression\\videos\\BVI-HD\\BVI-HD_CDVL_videos\\ORIG\\CarpetCircleFast_1920x1080_60fps.mp4':\n  Metadata:\n    major_brand     : isom\n    minor_version   : 512\n    compatible_brands: isomiso2avc1mp41\n    encoder         : Lavf54.28.101\n  Duration: 00:00:05.00, start: 0.000000, bitrate: 324759 kb/s\n  Stream #0:0[0x1](und): Video: h264 (High 4:4:4 Predictive) (avc1 / 0x31637661), yuv420p(progressive), 1920x1080, 324754 kb/s, 60 fps, 60 tbr, 60 tbn (default)\n    Metadata:\n      handler_name    : VideoHandler\n      vendor_id       : [0][0][0][0]\n[out#0/mp4 @ 000001e429b779c0] Codec AVOption b:a (set bitrate (in bits/s)) has not been used for any stream. The most likely reason is either wrong type (e.g. a video option with no video streams) or that it is a private option of some decoder which was not actually used for any stream.\nStream mapping:\n  Stream #0:0 -> #0:0 (h264 (native) -> h264 (libx264))\nPress [q] to stop, [?] for help\n[libx264 @ 000001e429af1900] using cpu capabilities: MMX2 SSE2Fast SSSE3 SSE4.2 AVX FMA3 BMI2 AVX2\n[libx264 @ 000001e429af1900] profile High, level 5.0, 4:2:0, 8-bit\n[libx264 @ 000001e429af1900] 264 - core 165 r3222 b35605a - H.264/MPEG-4 AVC codec - Copyleft 2003-2025 - http://www.videolan.org/x264.html - options: cabac=1 ref=5 deblock=1:0:0 analyse=0x3:0x113 me=hex subme=8 psy=1 psy_rd=1.00:0.00 mixed_ref=1 me_range=16 chroma_me=1 trellis=2 8x8dct=1 cqm=0 deadzone=21,11 fast_pskip=1 chroma_qp_offset=-2 threads=18 lookahead_threads=3 sliced_threads=0 nr=0 decimate=1 interlaced=0 bluray_compat=0 constrained_intra=0 bframes=3 b_pyramid=2 b_adapt=1 b_bias=0 direct=3 weightb=1 open_gop=0 weightp=2 keyint=250 keyint_min=25 scenecut=40 intra_refresh=0 rc_lookahead=50 rc=cbr mbtree=1 bitrate=2500 ratetol=1.0 qcomp=0.60 qpmin=0 qpmax=69 qpstep=4 vbv_maxrate=2500 vbv_bufsize=2500 nal_hrd=none filler=0 ip_ratio=1.40 aq=1:1.00\nOutput #0, mp4, to 'C:\\Users\\Peter\\Desktop\\stuff\\MIUN\\quantitative_research\\video_compression\\compressed_videos\\BVI-HD\\h264\\2.5\\CarpetCircleFast_1920x1080_60fps_h264.mp4':\n  Metadata:\n    major_brand     : isom\n    minor_version   : 512\n    compatible_brands: isomiso2avc1mp41\n    encoder         : Lavf62.3.100\n  Stream #0:0(und): Video: h264 (avc1 / 0x31637661), yuv420p(tv, progressive), 1920x1080, q=2-31, 2500 kb/s, 60 fps, 15360 tbn (default)\n    Metadata:\n      encoder         : Lavc62.11.100 libx264\n      handler_name    : VideoHandler\n      vendor_id       : [0][0][0][0]\n    Side data:\n      cpb: bitrate max/min/avg: 2500000/0/2500000 buffer size: 2500000 vbv_delay: N/A\nframe=    0 fps=0.0 q=0.0 size=       0KiB time=N/A bitrate=N/A speed=N/A elapsed=0:00:00.51    \nframe=    4 fps=3.8 q=44.0 size=       0KiB time=00:00:00.03 bitrate=  11.5kbits/s speed=0.0317x elapsed=0:00:01.05    \nframe=   34 fps= 22 q=39.0 size=       0KiB time=00:00:00.53 bitrate=   0.7kbits/s speed=0.34x elapsed=0:00:01.57    \nframe=   62 fps= 29 q=39.0 size=       0KiB time=00:00:01.00 bitrate=   0.4kbits/s speed=0.474x elapsed=0:00:02.10    \nframe=   86 fps= 33 q=40.0 size=     256KiB time=00:00:01.40 bitrate=1498.2kbits/s speed=0.535x elapsed=0:00:02.61    \nframe=  114 fps= 36 q=40.0 size=     256KiB time=00:00:01.80 bitrate=1165.3kbits/s speed=0.571x elapsed=0:00:03.15    \nframe=  149 fps= 40 q=38.0 size=     512KiB time=00:00:02.40 bitrate=1747.8kbits/s speed=0.645x elapsed=0:00:03.72    \nframe=  180 fps= 42 q=37.0 size=     512KiB time=00:00:02.96 bitrate=1413.9kbits/s speed=0.696x elapsed=0:00:04.26    \nframe=  205 fps= 43 q=39.0 size=     512KiB time=00:00:03.38 bitrate=1239.8kbits/s speed=0.705x elapsed=0:00:04.79    \nframe=  227 fps= 43 q=40.0 size=     768KiB time=00:00:03.75 bitrate=1677.8kbits/s speed=0.707x elapsed=0:00:05.30    \nframe=  288 fps= 49 q=-1.0 size=    1024KiB time=00:00:04.76 bitrate=1759.9kbits/s speed=0.818x elapsed=0:00:05.82    \n[mp4 @ 000001e429b77ac0] Starting second pass: moving the moov atom to the beginning of the file\n[out#0/mp4 @ 000001e429b779c0] video:1083KiB audio:0KiB subtitle:0KiB other streams:0KiB global headers:0KiB muxing overhead: 0.384385%\nframe=  300 fps= 51 q=-1.0 Lsize=    1087KiB time=00:00:04.96 bitrate=1793.2kbits/s speed=0.839x elapsed=0:00:05.91    \n[libx264 @ 000001e429af1900] frame I:2     Avg QP:34.41  size: 16252\n[libx264 @ 000001e429af1900] frame P:91    Avg QP:35.09  size:  8211\n[libx264 @ 000001e429af1900] frame B:207   Avg QP:36.80  size:  1587\n[libx264 @ 000001e429af1900] consecutive B-frames:  5.0%  4.0% 15.0% 76.0%\n[libx264 @ 000001e429af1900] mb I  I16..4: 63.4% 36.6%  0.0%\n[libx264 @ 000001e429af1900] mb P  I16..4: 10.3%  4.5%  0.0%  P16..4: 27.1%  0.8%  1.0%  0.0%  0.0%    skip:56.4%\n[libx264 @ 000001e429af1900] mb B  I16..4:  0.1%  0.0%  0.0%  B16..8: 22.1%  0.1%  0.0%  direct: 0.1%  skip:77.6%  L0:46.6% L1:53.1% BI: 0.3%\n[libx264 @ 000001e429af1900] 8x8 transform intra:31.2% inter:99.5%\n[libx264 @ 000001e429af1900] direct mvs  spatial:95.2% temporal:4.8%\n[libx264 @ 000001e429af1900] coded y,uvDC,uvAC intra: 10.8% 26.6% 0.1% inter: 2.0% 3.2% 0.0%\n[libx264 @ 000001e429af1900] i16 v,h,dc,p: 28% 24% 10% 38%\n[libx264 @ 000001e429af1900] i8 v,h,dc,ddl,ddr,vr,hd,vl,hu:  7% 10% 19%  9% 12% 10% 15%  8% 10%\n[libx264 @ 000001e429af1900] i4 v,h,dc,ddl,ddr,vr,hd,vl,hu:  3%  1%  6%  9% 23% 14% 26%  4% 15%\n[libx264 @ 000001e429af1900] i8c dc,h,v,p: 81%  3% 12%  4%\n[libx264 @ 000001e429af1900] Weighted P-Frames: Y:4.4% UV:4.4%\n[libx264 @ 000001e429af1900] ref P L0: 57.0% 13.4% 17.4%  6.8%  5.2%  0.2%\n[libx264 @ 000001e429af1900] ref B L0: 93.1%  4.9%  1.6%  0.5%\n[libx264 @ 000001e429af1900] ref B L1: 98.7%  1.3%\n[libx264 @ 000001e429af1900] kb/s:1773.25\n",
  "seconds": 6.133448839187622,
  "probe_out": {}
}